<svg width="65" height="65" viewBox="0 0 65 65" fill="none" xmlns="http://www.w3.org/2000/svg">
<g clip-path="url(#clip0)">
<path d="M63.3334 1.66672C63.7209 2.04451 63.9518 2.56871 63.9518 3.14511C62.9556 7.13953 61.5719 10.9978 59.8212 14.6774C59.8002 14.6774 59.7792 14.6774 59.7582 14.6774C54.5475 14.6774 50.3228 10.4526 50.3228 5.24189C50.3228 5.2209 50.3228 5.19991 50.3228 5.17892C54.0023 3.4282 57.8606 2.04451 61.855 1.04834C62.4314 1.04834 62.9556 1.27921 63.3334 1.66672Z" fill="#E6E9ED"/>
<path d="M62.9033 20.9678C61.75 24.417 59.947 27.5934 57.5984 30.3403L53.5308 26.2727C56.2777 23.924 59.454 22.1211 62.9033 20.9678Z" fill="#CCD1D9"/>
<path d="M59.758 14.6774H59.821C58.8146 16.8264 57.6822 18.9129 56.424 20.9257C56.1409 20.9467 55.8578 20.9677 55.5645 20.9677C49.1902 20.9677 44.0322 15.8097 44.0322 9.43547C44.0322 9.14214 44.0532 8.85906 44.0742 8.57597C44.7873 8.12498 45.5106 7.69498 46.2339 7.28648C47.5654 6.53142 48.9281 5.82908 50.3225 5.17896V5.24192C50.3225 10.4526 54.5473 14.6774 59.758 14.6774Z" fill="#69D6F4"/>
<path d="M59.758 7.33872C59.758 8.49665 58.8192 9.43549 57.6612 9.43549C56.5033 9.43549 55.5645 8.49665 55.5645 7.33872C55.5645 6.18078 56.5033 5.24194 57.6612 5.24194C58.8192 5.24194 59.758 6.18078 59.758 7.33872Z" fill="#FF826E"/>
<path d="M53.5309 26.2726L57.5985 30.3402C57.127 30.8961 56.6341 31.4306 56.1201 31.9445L54.5163 33.5483L50.3228 29.3548L51.9266 27.751C52.4405 27.237 52.9749 26.744 53.5309 26.2726Z" fill="#FCD770"/>
<path d="M55.5644 20.9678C49.1902 20.9678 44.0322 15.8098 44.0322 9.43554C44.0322 9.14222 44.0532 8.85913 44.0742 8.57605C40.0275 11.0813 36.2635 14.0591 32.8562 17.4664L18.3887 31.9339L33.0661 46.6113L47.5336 32.1438C50.9409 28.7365 53.9187 24.9725 56.4239 20.9258C56.1408 20.9468 55.8578 20.9678 55.5644 20.9678Z" fill="#E6E9ED"/>
<path d="M54.5163 33.5484L34.1777 53.887C34.146 53.7611 34.0938 53.6357 34.0518 53.5097C33.3495 51.6853 33.0034 49.7774 33.0034 47.9008C33.0034 47.4708 33.0244 47.0413 33.0664 46.6113L50.3228 29.3549L54.5163 33.5484Z" fill="#CCD1D9"/>
<path d="M39.8286 21.387C35.7713 21.796 31.976 23.5887 29.0929 26.4718L28.1495 27.4153C25.4758 30.0889 22.0061 31.6405 18.3889 31.9339C16.093 32.133 13.7341 31.8079 11.4904 30.9484C11.3645 30.9065 11.2391 30.8542 11.1132 30.8225C10.4318 30.6024 9.73972 30.4974 9.03739 30.4974C8.85924 30.4974 8.68059 30.5082 8.50244 30.5184L34.4818 56.4978C34.492 56.3196 34.5028 56.141 34.5028 55.9628C34.5028 55.2605 34.3978 54.5684 34.1777 53.887C34.146 53.7611 34.0937 53.6357 34.0518 53.5097C33.3494 51.6853 33.0034 49.7774 33.0034 47.9008C33.0034 47.4708 33.0244 47.0413 33.0663 46.6113C33.3597 42.9941 34.9113 39.5244 37.5849 36.8507L38.5284 35.9073C41.4115 33.0242 43.2042 29.2289 43.6132 25.1716L44.0324 20.9678L39.8286 21.387Z" fill="#AAB2BD"/>
<path d="M44.0322 2.0968C42.8789 5.54604 41.0759 8.72242 38.7273 11.4693L34.6597 7.4017C37.4066 5.05307 40.583 3.25013 44.0322 2.0968Z" fill="#CCD1D9"/>
<path d="M34.6598 7.40173L38.7274 11.4694C38.2559 12.0253 37.763 12.5597 37.249 13.0737L35.6452 14.6775L31.4517 10.4839L33.0555 8.88012C33.5694 8.36617 34.1039 7.8732 34.6598 7.40173Z" fill="#FCD770"/>
<path d="M36.5678 26.2097C37.7943 26.2097 38.7905 27.2059 38.7905 28.4324C38.7905 29.0196 38.5596 29.5857 38.1404 30.005L32.1019 36.0435C31.6827 36.4627 31.1165 36.6936 30.5293 36.6936C29.9212 36.6936 29.355 36.4417 28.9568 36.0435C28.5585 35.6452 28.3066 35.079 28.3066 34.4709C28.3066 33.8837 28.5375 33.3176 28.9568 32.8983L34.9952 26.8598C35.4145 26.4406 35.9807 26.2097 36.5678 26.2097Z" fill="#FF826E"/>
<path d="M35.6449 14.6774L18.3885 31.9338C16.0926 32.133 13.7338 31.8079 11.4901 30.9484C11.3641 30.9064 11.2387 30.8542 11.1128 30.8225L31.4514 10.4839L35.6449 14.6774Z" fill="#CCD1D9"/>
<path d="M26.2095 48.2258L34.4814 56.4978C34.3555 58.0913 33.6844 59.6219 32.4998 60.8065L4.19336 32.5C5.37791 31.3155 6.90852 30.6444 8.50209 30.5184L26.2095 48.2258Z" fill="#FCD770"/>
<path d="M28.3067 44.0323L26.2099 48.2259L16.7744 38.7904L20.968 36.6936L28.3067 44.0323Z" fill="#E6E9ED"/>
<path d="M28.3066 56.6129L23.1906 61.7289C21.7644 63.1551 19.8356 63.9516 17.8228 63.9516C17.8228 61.9388 18.6193 60.01 20.0455 58.5838L25.1615 53.4678L28.3066 56.6129Z" fill="#FF826E"/>
<path d="M23.0646 51.3709L14.6775 55.5645L9.43555 50.3225L13.6291 41.9354L23.0646 51.3709Z" fill="#E6E9ED"/>
<path d="M11.5322 39.8388L6.4162 44.9548C4.99003 46.3809 3.06116 47.1775 1.04834 47.1775C1.04834 45.1647 1.84487 43.2358 3.27104 41.8096L8.38705 36.6936L11.5322 39.8388Z" fill="#FF826E"/>
<path d="M32.8442 36.7836L38.8807 30.7472C39.498 30.1293 39.8389 29.3077 39.8389 28.4334C39.8389 26.6289 38.3713 25.1613 36.5668 25.1613C35.6925 25.1613 34.8709 25.5022 34.253 26.1195L28.2166 32.156C27.5992 32.7738 27.2583 33.5954 27.2583 34.4698C27.2583 36.2743 28.7259 37.7419 30.5304 37.7419C31.4048 37.7419 32.2264 37.401 32.8442 36.7836ZM29.3551 34.4698C29.3551 34.1555 29.4779 33.8606 29.6991 33.6384L35.7355 27.602C35.9577 27.3809 36.2525 27.258 36.5668 27.258C37.2149 27.258 37.7422 27.7853 37.7422 28.4334C37.7422 28.7477 37.6193 29.0425 37.3982 29.2647L31.3618 35.3011C31.1396 35.5223 30.8447 35.6451 30.5304 35.6451C29.8823 35.6451 29.3551 35.1179 29.3551 34.4698Z" fill="black"/>
<path d="M65 3.14516C65 1.41133 63.5887 0 61.8548 0L61.5999 0.0312263C54.6543 1.76762 48.082 4.66194 42.1474 8.56012C43.3402 6.63535 44.3112 4.5739 45.0264 2.429L45.6888 0.440241L43.7 1.10265C39.4307 2.52575 35.4931 4.95987 32.3111 8.14189L10.8018 29.6507C8.17926 29.0477 5.38988 29.8202 3.45231 31.7577L2.71106 32.5L6.90461 36.6935L2.53087 41.0673C0.898398 42.6998 0 44.8687 0 47.1774V48.2258H1.04839C3.35709 48.2258 5.52604 47.3274 7.15852 45.6949L11.5323 41.3212L12.3534 42.1418L8.15981 50.5289L14.4711 56.8402L22.8582 52.6466L23.6788 53.4677L19.3051 57.8415C17.6726 59.474 16.7742 61.6429 16.7742 63.9516V65H17.8226C20.1313 65 22.3002 64.1016 23.9327 62.4691L28.3064 58.0954L32.5 62.2889L33.2412 61.5477C35.1798 59.6091 35.9523 56.8207 35.3493 54.1972L56.8591 32.6879C60.0411 29.5058 62.4742 25.5683 63.8984 21.2989L64.5608 19.3102L62.572 19.9726C60.4261 20.6877 58.3647 21.6598 56.4409 22.8516C60.3391 16.917 63.2334 10.3446 64.9698 3.39907L65 3.14516ZM25.9225 46.4561L18.5439 39.0775L20.7614 37.9692L27.0308 44.2386L25.9225 46.4561ZM21.174 35.4179L16.9805 37.5146L11.5425 32.0767C17.5804 34.2118 24.3412 32.7043 28.8885 28.1565L29.8278 27.2171C32.5338 24.5112 36.1202 22.8116 39.9278 22.4313L42.86 22.138L42.5667 25.0702C42.1858 28.8777 40.4868 32.4642 37.7808 35.1701L36.8415 36.1095C32.2947 40.6562 30.7872 47.4185 32.9213 53.456L27.4833 48.018L29.5801 43.8244L21.174 35.4179ZM17.9244 30.9156C16.3002 31.0093 14.6544 30.8302 13.0516 30.3664L31.4516 11.9664L34.1627 14.6774L17.9244 30.9156ZM34.0854 47.0745L50.3226 30.8373L53.0336 33.5484L34.6347 51.9474C34.1714 50.3456 33.9917 48.6988 34.0854 47.0745ZM34.7718 43.4231C35.468 41.2664 36.6587 39.2587 38.325 37.593L39.2643 36.6536C42.3107 33.6073 44.2252 29.5678 44.6537 25.2795L45.2025 19.7975L39.7205 20.3463C35.4322 20.7748 31.3938 22.6893 28.3464 25.7356L27.407 26.675C25.7413 28.3413 23.7326 29.533 21.5759 30.2292L33.5955 18.2096C36.4903 15.3147 39.6554 12.7327 43.0371 10.4859C43.5449 16.5843 48.4157 21.4541 54.5141 21.9629C52.2683 25.3435 49.6853 28.5097 46.7904 31.4045L34.7718 43.4231ZM55.8215 19.9055C55.7355 19.9101 55.6515 19.9194 55.5645 19.9194C49.7835 19.9194 45.0806 15.2165 45.0806 9.43548C45.0806 9.34846 45.0899 9.26451 45.0945 9.17851C46.4971 8.32516 47.9366 7.53375 49.4032 6.79455C50.0794 11.3111 53.6428 14.8863 58.2116 15.5855C57.4714 17.0563 56.6769 18.4998 55.8215 19.9055ZM38.6352 9.89466L36.2354 7.49484C38.0711 6.05638 40.0788 4.83599 42.2186 3.91149C41.2941 6.05126 40.0727 8.05896 38.6352 9.89466ZM34.6357 8.8601L37.27 11.4944C37.0145 11.7734 36.7744 12.0667 36.5067 12.3354L35.6452 13.1949L32.9341 10.4839L33.7946 9.62335C34.0623 9.35563 34.3567 9.11554 34.6357 8.8601ZM5.67603 44.2124C4.71467 45.1738 3.5081 45.7989 2.1966 46.0292C2.42695 44.7187 3.05199 43.5111 4.01336 42.5498L8.3871 38.176L10.0498 39.8387L5.67603 44.2124ZM14.8837 54.2888L10.7112 50.1163L13.9162 43.7051L21.2948 51.0838L14.8837 54.2888ZM22.4502 60.9866C21.4889 61.948 20.2823 62.573 18.9708 62.8034C19.2011 61.4929 19.8262 60.2853 20.7875 59.324L25.1613 54.9502L26.824 56.6129L22.4502 60.9866ZM32.4329 59.2559L5.74412 32.5671C6.46335 32.072 7.27984 31.7598 8.12705 31.6246L33.3754 56.873C33.2402 57.7212 32.928 58.5377 32.4329 59.2559ZM54.5161 32.0659L51.8051 29.3548L52.6656 28.4943C52.9333 28.2266 53.2277 27.9865 53.5066 27.7311L56.1409 30.3653C55.8855 30.6443 55.6454 30.9377 55.3777 31.2064L54.5161 32.0659ZM57.5062 28.7656L55.1064 26.3658C56.9421 24.9273 58.9498 23.707 61.0895 22.7825C60.165 24.9222 58.9436 26.9299 57.5062 28.7656ZM59.1668 13.5988C55.0024 13.306 51.675 9.96787 51.3981 5.83421C54.7864 4.27852 58.3196 3.0223 61.9628 2.10189C62.4543 2.15257 62.8474 2.54418 62.8981 3.03715C61.9777 6.67937 60.7215 10.2115 59.1668 13.5988Z" fill="black"/>
<path d="M57.6613 4.1936C55.9274 4.1936 54.5161 5.60493 54.5161 7.33876C54.5161 9.0726 55.9274 10.4839 57.6613 10.4839C59.3951 10.4839 60.8064 9.0726 60.8064 7.33876C60.8064 5.60493 59.3951 4.1936 57.6613 4.1936ZM57.6613 8.38715C57.0838 8.38715 56.6129 7.9162 56.6129 7.33876C56.6129 6.76133 57.0838 6.29038 57.6613 6.29038C58.2387 6.29038 58.7097 6.76133 58.7097 7.33876C58.7097 7.9162 58.2387 8.38715 57.6613 8.38715Z" fill="black"/>
</g>
<defs>
<clipPath id="clip0">
<rect width="65" height="65" fill="white"/>
</clipPath>
</defs>
</svg>
