<svg width="65" height="65" viewBox="0 0 65 65" fill="none" xmlns="http://www.w3.org/2000/svg">
<g clip-path="url(#clip0)">
<path d="M51.2239 28.2603C50.5845 28.3545 49.9344 28.4073 49.2842 28.4073C47.9948 28.4073 46.7472 28.2076 45.5734 27.8513C43.5918 27.2432 41.8094 26.1528 40.3837 24.7169C38.9473 23.2907 37.8569 21.5088 37.2488 19.5272C36.8925 18.3529 36.6934 17.1054 36.6934 15.8159C36.6934 15.1657 36.7456 14.5161 36.8403 13.8762C37.2488 11.245 38.4861 8.79198 40.3939 6.89433L43.9271 3.37139C45.3323 1.96671 47.2504 1.18042 49.2428 1.18042H49.3052C51.2976 1.18042 53.2157 1.97746 54.6209 3.38214L61.7497 10.511C63.1549 11.9162 63.9514 13.8343 63.9514 15.8266C63.9514 17.8184 63.1651 19.7371 61.7605 21.1418L58.2063 24.7062C57.032 25.8907 55.6375 26.8137 54.1177 27.4423C53.1952 27.8303 52.22 28.1032 51.2239 28.2603Z" fill="#E6E9ED"/>
<path d="M56.6862 15.5747C57.3051 16.1931 57.6614 17.0531 57.6614 17.9233C57.6614 18.8141 57.3154 19.6531 56.6862 20.2822L55.2396 21.7391C53.6777 23.3117 51.5072 24.2137 49.2845 24.2137C44.6508 24.2137 40.8872 20.4496 40.8872 15.8158C40.8872 13.5931 41.7887 11.4231 43.3613 9.8608L44.7874 8.44589C45.4161 7.81675 46.2551 7.4707 47.1463 7.4707C48.1 7.4707 48.9283 7.81675 49.5574 8.44589L56.6862 15.5747Z" fill="#69D6F4"/>
<path d="M47.5653 35.0851C47.3451 35.4839 47.0723 35.8504 46.7472 36.1755L42.4595 40.4637L38.1718 44.7514C37.2278 45.6949 35.9383 46.2298 34.5966 46.2298C33.4433 46.2298 32.3427 45.8208 31.4514 45.1077C31.4514 46.0409 31.2835 46.9634 30.9482 47.8234C30.6022 48.7771 30.057 49.6683 29.3444 50.4234L19.9192 46.2298L18.8708 45.1814L14.6772 35.7562C15.4323 35.0431 16.323 34.4979 17.2772 34.1524C18.1367 33.8166 19.0597 33.6492 19.9924 33.6492C19.2798 32.758 18.8708 31.6568 18.8708 30.504C18.8708 29.1618 19.4052 27.8723 20.3492 26.9289L24.6369 22.6411L28.9247 18.3529C29.2497 18.0278 29.6168 17.7555 30.015 17.5354C30.7593 17.1054 31.6193 16.875 32.4998 16.875C33.8415 16.875 35.131 17.4094 36.075 18.3529L37.2488 19.5272C37.8569 21.5088 38.9473 23.2907 40.3837 24.7169C41.8094 26.1528 43.5918 27.2432 45.5734 27.8513L46.7472 29.0256C47.6912 29.9691 48.2256 31.2586 48.2256 32.6008C48.2256 33.4813 47.9948 34.3408 47.5653 35.0851Z" fill="#CCD1D9"/>
<path d="M31.4515 22.1169L42.9838 33.6492L35.6451 40.9879L24.1128 29.4557L31.4515 22.1169Z" fill="#B4DD7F"/>
<path d="M35.6452 31.5523C35.6452 32.7103 34.7064 33.6491 33.5484 33.6491C32.3905 33.6491 31.4517 32.7103 31.4517 31.5523C31.4517 30.3939 32.3905 29.4556 33.5484 29.4556C34.7064 29.4556 35.6452 30.3939 35.6452 31.5523Z" fill="#FCD770"/>
<path d="M46.1289 44.1332L40.2685 49.9935C39.3246 50.937 38.0351 51.4719 36.6934 51.4719C35.3517 51.4719 34.0622 50.937 33.1182 49.9935L30.9482 47.8236C31.2835 46.9636 31.4514 46.0411 31.4514 45.1079C32.3427 45.821 33.4433 46.23 34.5966 46.23C35.9383 46.23 37.2278 45.6951 38.1718 44.7516L42.4595 40.4639L46.1289 44.1332Z" fill="#F5E0CD"/>
<path d="M53.0379 30.074C53.9818 31.0175 54.5162 32.307 54.5162 33.6492C54.5162 34.9909 53.9818 36.2804 53.0379 37.2238L51.3711 38.8911L47.5656 35.0851C47.9951 34.3408 48.2259 33.4813 48.2259 32.6008C48.2259 31.2586 47.6915 29.9691 46.7475 29.0256L45.5737 27.8513C46.7475 28.2076 47.9951 28.4073 49.2845 28.4073C49.9347 28.4073 50.5848 28.3545 51.2242 28.2603L53.0379 30.074Z" fill="#F5E0CD"/>
<path d="M37.2488 19.5272L36.075 18.3529C35.131 17.4095 33.8415 16.875 32.4998 16.875C31.6193 16.875 30.7593 17.1054 30.015 17.5354L26.2095 13.7299L27.8762 12.0626C28.8202 11.1191 30.1097 10.5847 31.4514 10.5847C32.7931 10.5847 34.0826 11.1191 35.0266 12.0626L36.8403 13.8763C36.7456 14.5162 36.6933 15.1658 36.6933 15.8159C36.6933 17.1054 36.8925 18.3529 37.2488 19.5272Z" fill="#F5E0CD"/>
<path d="M24.637 22.6413L20.3492 26.929C19.4053 27.8725 18.8708 29.162 18.8708 30.5042C18.8708 31.657 19.2799 32.7581 19.9924 33.6493C19.0597 33.6493 18.1368 33.8167 17.2773 34.1525L15.1073 31.9821C14.1633 31.0386 13.6289 29.7491 13.6289 28.4074C13.6289 27.0652 14.1633 25.7757 15.1073 24.8322L20.9676 18.9719L24.637 22.6413Z" fill="#F5E0CD"/>
<path d="M54.5159 42.0364L49.274 47.2783L42.4595 40.4638L46.7472 36.1756C47.0723 35.8505 47.3451 35.484 47.5652 35.0852L51.3708 38.8912L54.5159 42.0364Z" fill="#E6E9ED"/>
<path d="M26.2098 13.7299L30.0154 17.5354C29.6171 17.7555 29.2501 18.0279 28.925 18.3529L24.6373 22.6412L17.8228 15.8267L23.0647 10.5847L26.2098 13.7299Z" fill="#E6E9ED"/>
<path d="M56.5711 44.0912C57.2735 44.7935 57.6615 45.737 57.6615 46.7121C57.6615 48.7669 56.005 50.4235 53.9502 50.4235C52.975 50.4235 52.0315 50.0354 51.3292 49.3331L49.2744 47.2783L54.5163 42.0364L56.5711 44.0912Z" fill="#FFEAA7"/>
<path d="M23.0643 10.5846L17.8224 15.8266L15.7676 13.7718C15.0653 13.0689 14.6772 12.1255 14.6772 11.1508C14.6772 9.09548 16.3338 7.43945 18.3886 7.43945C19.3638 7.43945 20.3072 7.82697 21.0095 8.52982L23.0643 10.5846Z" fill="#FFEAA7"/>
<path d="M20.4436 59.3347L16.8162 62.962C16.1138 63.6644 15.1704 64.0524 14.1952 64.0524C12.1404 64.0524 10.4839 62.3959 10.4839 60.3411V60.0472C10.4839 59.24 10.746 58.4644 11.2282 57.8245L14.5305 53.4216L20.4436 59.3347Z" fill="#FFEAA7"/>
<path d="M11.6791 50.5698L7.2757 53.8726C6.63632 54.3548 5.86027 54.6169 5.05299 54.6169H4.75967C2.70487 54.6169 1.04834 52.9604 1.04834 50.9056C1.04834 49.9304 1.43637 48.9869 2.1387 48.2846L5.76608 44.6572L11.6791 50.5698Z" fill="#FFEAA7"/>
<path d="M19.9191 46.23L29.3444 50.4235C29.2916 50.486 29.2287 50.5489 29.1765 50.6017L20.4433 59.3348L14.5303 53.4218L19.9191 46.23Z" fill="#E6E9ED"/>
<path d="M14.6774 35.7563L18.871 45.1816L11.6792 50.5699L5.76611 44.6574L14.4993 35.9243C14.5515 35.8715 14.6144 35.8086 14.6774 35.7563Z" fill="#E6E9ED"/>
<path d="M62.4881 9.76572L55.3654 2.64303C53.7457 1.02336 51.5921 0.131104 49.2394 0.131104C46.9542 0.131104 44.8037 1.02029 43.185 2.6328L39.6565 6.15011C38.0721 7.72884 36.9096 9.68842 36.2543 11.8082L35.7711 11.3245C34.6188 10.1717 33.0841 9.53638 31.4516 9.53638C29.8191 9.53638 28.2844 10.1717 27.1311 11.326L26.2097 12.2474L21.7469 7.78412C20.8485 6.88573 19.6542 6.39122 18.3847 6.39122C15.7627 6.39122 13.629 8.52434 13.629 11.1463C13.629 12.4159 14.124 13.6112 15.0224 14.5085L19.4853 18.9719L14.3703 24.0868C13.2159 25.2402 12.5806 26.7749 12.5806 28.4073C12.5806 30.0393 13.2159 31.5745 14.3703 32.7273L15.496 33.8535C14.8725 34.2257 14.2802 34.6598 13.7529 35.1871L1.39239 47.5476C0.495015 48.446 0 49.6403 0 50.9098C0 53.5318 2.13363 55.6654 4.75562 55.6654H5.05509C6.07737 55.6654 7.09043 55.3275 7.90897 54.7143L17.8226 47.2783L10.3866 57.194C9.77283 58.0105 9.43548 59.024 9.43548 60.0463V60.3463C9.43548 62.9673 11.5691 65.1009 14.1911 65.1009C15.4606 65.1009 16.6559 64.6059 17.5533 63.7075L29.9138 51.347C30.4411 50.8197 30.8752 50.2274 31.2474 49.6034L32.373 50.7296C33.5264 51.885 35.0611 52.5202 36.6935 52.5202C38.326 52.5202 39.8607 51.885 41.014 50.7306L42.9839 48.7603L46.0021 51.779C46.4111 52.1875 46.4111 52.8525 46.0021 53.2615L44.7735 54.4901C43.547 55.7156 43.547 57.7115 44.7735 58.937L50.6297 64.7937L52.1122 63.3113L46.256 57.455C45.847 57.046 45.847 56.3811 46.256 55.9726L47.4846 54.7435C48.7111 53.518 48.7111 51.522 47.4846 50.2965L44.4664 47.2783L46.129 45.6151L50.5918 50.0784C51.4902 50.9768 52.6845 51.4719 53.9541 51.4719C56.576 51.4719 58.7097 49.3382 58.7097 46.7162C58.7097 45.4467 58.2147 44.2514 57.3163 43.354L52.8535 38.8912L53.7749 37.9693C54.9292 36.8165 55.5645 35.2812 55.5645 33.6493C55.5645 32.0168 54.9292 30.4821 53.7749 29.3288L53.2916 28.8455C55.4115 28.1913 57.371 27.0283 58.9498 25.4434L62.4973 21.8831C64.1108 20.2644 65 18.1149 65 15.8298C65 13.539 64.1077 11.3854 62.4881 9.76572ZM28.6136 12.808C30.1294 11.2922 32.7739 11.2922 34.2896 12.808L35.744 14.2623C35.6841 14.7773 35.6452 15.2928 35.6452 15.8129C35.6452 16.1231 35.6713 16.4261 35.6912 16.7312C34.7406 16.1461 33.6456 15.8267 32.5 15.8267C31.7086 15.8267 30.9412 15.9787 30.2271 16.2649L27.6922 13.7299L28.6136 12.808ZM24.6371 21.1587L19.3051 15.8267L23.0645 12.0667L28.4073 17.4095C28.3315 17.4786 28.2522 17.5426 28.1795 17.6163L24.6371 21.1587ZM15.7258 11.1463C15.7258 9.68074 16.9191 8.488 18.3847 8.488C19.0942 8.488 19.7622 8.76443 20.2644 9.26661L21.582 10.5848L17.8226 14.3442L16.5049 13.0261C16.0027 12.5239 15.7258 11.8563 15.7258 11.1463ZM15.8528 31.2454C15.0946 30.4872 14.6774 29.4788 14.6774 28.4073C14.6774 27.3359 15.0946 26.327 15.8528 25.5693L20.9677 20.4538L23.1546 22.6412L19.6122 26.1836C18.4579 27.3369 17.8226 28.8716 17.8226 30.5041C17.8226 31.2756 17.9787 32.046 18.2746 32.7673C18.0345 32.8144 17.8036 32.8942 17.5687 32.9613L15.8528 31.2454ZM17.5743 44.8437L11.7805 49.1893L7.24861 44.6573L14.3401 37.5659L17.5743 44.8437ZM6.64968 53.0368C6.19306 53.3797 5.62587 53.5686 5.05407 53.5686H4.75562C3.29003 53.5686 2.09677 52.3754 2.09677 50.9098C2.09677 50.1998 2.37372 49.5322 2.8759 49.0301L5.76613 46.1393L10.0866 50.4598L6.64968 53.0368ZM20.2567 47.5266L27.535 50.7608L20.4435 57.8523L15.9111 53.3198L20.2567 47.5266ZM16.0708 62.225C15.5687 62.7272 14.9006 63.0041 14.1911 63.0041C12.7255 63.0041 11.5323 61.8109 11.5323 60.3453V60.0453C11.5323 59.474 11.7212 58.9078 12.0636 58.4507L14.6406 55.0143L18.9611 59.3348L16.0708 62.225ZM29.0497 49.1411L20.5234 45.351L19.7494 44.5775L15.9597 36.0512C17.0102 35.2592 18.2587 34.798 19.583 34.7187L23.4095 38.5462L24.892 37.0637L20.7968 32.9674C20.2326 32.2472 19.9194 31.3739 19.9194 30.5041C19.9194 29.4327 20.3366 28.4237 21.0947 27.6661L29.662 19.0983C31.1777 17.5825 33.8223 17.5825 35.338 19.0983L36.3485 20.1093C37.703 24.178 40.9219 27.3963 44.9905 28.7508L46.0011 29.7619C46.7602 30.5205 47.1774 31.5295 47.1774 32.6009C47.1774 33.6723 46.7602 34.6808 46.0021 35.4389L37.4348 44.0062C36.0603 45.3796 33.7373 45.5609 32.1319 44.3016L28.0382 40.2078L26.5557 41.6903L30.3833 45.5168C30.3024 46.8422 29.8412 48.0907 29.0497 49.1411ZM47.4846 36.9209C47.5578 36.8477 47.6218 36.7688 47.6914 36.6936L53.0336 42.0364L49.2742 45.7958L43.9422 40.4638L47.4846 36.9209ZM39.5316 49.2481C38.0158 50.7639 35.3713 50.7639 33.8555 49.2481L32.1391 47.5317C32.2067 47.2967 32.286 47.0664 32.3331 46.8263C34.5819 47.7488 37.2188 47.1892 38.9173 45.4887L42.4597 41.9458L44.6465 44.1332L39.5316 49.2481ZM56.6129 46.7162C56.6129 48.1818 55.4196 49.3751 53.9541 49.3751C53.2445 49.3751 52.5765 49.0981 52.0743 48.596L50.7567 47.2783L54.5161 43.5184L55.8338 44.8365C56.336 45.3387 56.6129 46.0062 56.6129 46.7162ZM52.2924 30.8113C53.0505 31.5689 53.4677 32.5779 53.4677 33.6493C53.4677 34.7207 53.0505 35.7292 52.2924 36.4873L51.371 37.4087L48.836 34.8738C49.1222 34.1597 49.2742 33.3923 49.2742 32.6009C49.2742 31.4547 48.9543 30.3603 48.3686 29.4092C48.6732 29.4291 48.9773 29.4557 49.288 29.4557C49.8076 29.4557 50.3246 29.4168 50.8386 29.3569L52.2924 30.8113ZM61.0127 20.4037L57.4652 23.964C55.3152 26.1217 52.3334 27.359 49.288 27.359C42.9209 27.359 37.7419 22.1795 37.7419 15.8129C37.7419 12.766 38.9792 9.78568 41.1364 7.63567L44.6655 4.11835C45.8889 2.89899 47.5127 2.22788 49.3003 2.22788C51.0311 2.22788 52.6584 2.90206 53.8819 4.12552L61.0046 11.2482C62.228 12.4717 62.9022 14.099 62.9022 15.8298C62.9032 17.5564 62.2321 19.1802 61.0127 20.4037Z" fill="black"/>
<path d="M50.3017 7.70372C49.4622 6.8647 48.3698 6.42139 47.1428 6.42139C45.9741 6.42139 44.8755 6.87545 44.0524 7.69808L42.618 9.12119C40.8514 10.8801 39.8389 13.3188 39.8389 15.8128C39.8389 21.0236 44.0775 25.2621 49.2882 25.2621C51.7822 25.2621 54.2204 24.2491 55.9819 22.4815L57.4306 21.02C58.2558 20.1943 58.7098 19.0952 58.7098 17.9255C58.7098 16.7722 58.2425 15.6429 57.4265 14.8284L50.3017 7.70372ZM55.944 19.5411L54.4943 21.0036C53.1259 22.3781 51.2273 23.1654 49.2882 23.1654C45.2339 23.1654 41.9356 19.8672 41.9356 15.8128C41.9356 13.8722 42.723 11.9746 44.0964 10.6078L45.5318 9.18364C45.9623 8.75415 46.5351 8.51816 47.1438 8.51816C47.8026 8.51816 48.3831 8.75005 48.8213 9.18722L55.946 16.312C56.3699 16.7363 56.6131 17.3255 56.6131 17.9265C56.6131 18.5357 56.376 19.109 55.944 19.5411Z" fill="black"/>
<path d="M44.4663 33.6493L31.4516 20.6345L22.6304 29.4557L35.6451 42.47L44.4663 33.6493ZM31.4516 23.599L41.5013 33.6493L35.6451 39.5055L25.5953 29.4557L31.4516 23.599Z" fill="black"/>
<path d="M36.6936 31.5524C36.6936 29.818 35.2823 28.4072 33.5485 28.4072C31.8146 28.4072 30.4033 29.818 30.4033 31.5524C30.4033 33.2862 31.8146 34.6976 33.5485 34.6976C35.2823 34.6976 36.6936 33.2862 36.6936 31.5524ZM33.5485 32.6008C32.971 32.6008 32.5001 32.1298 32.5001 31.5524C32.5001 30.9744 32.971 30.504 33.5485 30.504C34.1259 30.504 34.5969 30.9744 34.5969 31.5524C34.5969 32.1298 34.1259 32.6008 33.5485 32.6008Z" fill="black"/>
</g>
<defs>
<clipPath id="clip0">
<rect width="65" height="65" fill="white"/>
</clipPath>
</defs>
</svg>
