<svg width="65" height="65" viewBox="0 0 65 65" fill="none" xmlns="http://www.w3.org/2000/svg">
<g clip-path="url(#clip0)">
<path d="M64.0479 38.8094C64.0479 41.1325 62.1647 43.0157 59.8416 43.0157H28.2937C25.9706 43.0157 24.0874 41.1325 24.0874 38.8094V7.26151C24.0874 4.9384 25.9706 3.05518 28.2937 3.05518H59.8416C62.1647 3.05518 64.0479 4.9384 64.0479 7.26151V38.8094Z" fill="#5C545F"/>
<path d="M64.0481 7.26151C64.0481 4.9384 62.1648 3.05518 59.8418 3.05518H56.9219C59.245 3.05518 61.1282 4.9384 61.1282 7.26151V38.8094C61.1282 41.1325 59.245 43.0157 56.9219 43.0157H59.8418C62.1649 43.0157 64.0481 41.1325 64.0481 38.8094V7.26151Z" fill="#4B3F4E"/>
<path d="M59.8413 36.706C59.8413 37.8675 58.8997 38.8092 57.7381 38.8092H30.3967C29.2352 38.8092 28.2935 37.8676 28.2935 36.706V9.36446C28.2935 8.20297 29.2351 7.26123 30.3967 7.26123H57.7382C58.8998 7.26123 59.8414 8.20284 59.8414 9.36446L59.8413 36.706Z" fill="#9DC6FB"/>
<path d="M59.8415 9.36495C59.8415 8.20346 58.8999 7.26172 57.7383 7.26172H54.8184C55.9799 7.26172 56.9216 8.20333 56.9216 9.36495V36.7065C56.9216 37.868 55.98 38.8097 54.8184 38.8097H57.7383C58.8999 38.8097 59.8415 37.8681 59.8415 36.7065V9.36495Z" fill="#80B4FB"/>
<path d="M34.6032 15.6742C35.7648 15.6742 36.7065 14.7326 36.7065 13.571C36.7065 12.4094 35.7648 11.4678 34.6032 11.4678C33.4416 11.4678 32.5 12.4094 32.5 13.571C32.5 14.7326 33.4416 15.6742 34.6032 15.6742Z" fill="#ECF4FF"/>
<path d="M17.7777 44.6105V7.36558C17.7777 3.9056 15.0355 1.01081 11.576 0.95305C8.04188 0.894017 5.15852 3.74119 5.15852 7.26173V44.6103C5.15852 44.9257 5.01544 45.2225 4.77245 45.4235C2.41074 47.3757 0.915997 50.3395 0.952813 53.6516C1.0154 59.2826 5.58482 63.9124 11.2146 64.0449C17.1383 64.1843 21.984 59.424 21.984 53.532C21.984 50.268 20.4967 47.3516 18.1631 45.4228C17.9204 45.2221 17.7777 44.9254 17.7777 44.6105Z" fill="#ECF4FF"/>
<path d="M13.5714 46.8819V20.9324C13.5714 20.3516 13.1005 19.8809 12.5199 19.8809H10.4166C9.83582 19.8809 9.36507 20.3517 9.36507 20.9324V46.8758C9.36507 47.2792 9.13897 47.6538 8.77436 47.8262C6.53668 48.8843 5.02074 51.2187 5.16864 53.8906C5.34701 57.1138 7.98903 59.7101 11.2147 59.8364C14.8148 59.9775 17.7779 57.1007 17.7779 53.5318C17.7779 51.0176 16.3069 48.848 14.179 47.834C13.81 47.6583 13.5714 47.2905 13.5714 46.8819Z" fill="#FF8086"/>
<path d="M18.1634 45.4228C17.9206 45.2221 17.778 44.9254 17.778 44.6103V7.36556C17.778 3.90558 15.0358 1.01079 11.5763 0.95303C11.032 0.944016 10.5033 1.00432 9.99805 1.12492C12.7965 1.79778 14.8539 4.36883 14.8539 7.36556V44.6103C14.8539 44.9253 14.9966 45.2221 15.2393 45.4228C17.5728 47.3516 19.0602 50.2678 19.0602 53.5318C19.0602 58.8411 15.125 63.2296 10.0126 63.9442C10.4072 63.9995 10.8079 64.0353 11.2149 64.0449C17.1386 64.1843 21.9844 59.424 21.9844 53.5319C21.9843 50.268 20.4969 47.3516 18.1634 45.4228Z" fill="#DDEAFB"/>
<path d="M14.179 47.8342C13.81 47.6583 13.5715 47.2907 13.5715 46.882V20.9324C13.5715 20.3516 13.1006 19.8809 12.5199 19.8809H10.4167C10.2719 19.8809 10.1339 19.9102 10.0083 19.9631C10.3862 20.1226 10.6516 20.4965 10.6516 20.9324V46.8819C10.6516 47.2905 10.8901 47.6583 11.259 47.834C13.387 48.848 14.8579 51.0176 14.8579 53.5318C14.8579 56.5136 12.7891 59.0106 10.0089 59.6699C10.3987 59.7631 10.8018 59.8203 11.2146 59.8364C14.8147 59.9775 17.7778 57.1007 17.7778 53.5318C17.7778 51.0178 16.3068 48.848 14.179 47.8342Z" fill="#E5646E"/>
<path d="M18.7702 44.6891C18.7448 44.668 18.7302 44.6393 18.7302 44.6104V7.36559C18.7302 3.37051 15.5281 0.0668124 11.5921 0.00105079C9.63426 -0.03183 7.77618 0.707925 6.37703 2.08397C4.97763 3.46026 4.2069 5.29905 4.2069 7.26174V17.9766C4.2069 18.5024 4.63308 18.9287 5.15905 18.9287C5.68501 18.9287 6.11119 18.5024 6.11119 17.9766V7.26174C6.11119 5.81372 6.67982 4.4571 7.71232 3.4416C8.74458 2.42649 10.1073 1.88211 11.5605 1.90509C14.4638 1.95359 16.826 4.40314 16.826 7.36559V44.6103C16.826 45.2088 17.0925 45.7725 17.557 46.1567C19.7657 47.9821 21.0325 50.6702 21.0325 53.5317C21.0325 56.129 20.009 58.559 18.1508 60.374C16.2932 62.1884 13.8407 63.155 11.2376 63.0928C6.14839 62.9731 1.96212 58.7329 1.9055 53.6407C1.87313 50.7366 3.13948 48.009 5.37944 46.1572C5.84459 45.7729 6.11132 45.209 6.11132 44.6101V21.7852C6.11132 21.2593 5.68514 20.833 5.15917 20.833C4.63321 20.833 4.20703 21.2593 4.20703 21.7852V44.6103C4.20703 44.6392 4.1923 44.6682 4.1664 44.6895C1.48072 46.9098 -0.037387 50.1801 0.00120664 53.662C0.0343413 56.6336 1.21259 59.4452 3.31899 61.5789C5.42578 63.713 8.22204 64.9268 11.1926 64.9966C11.2858 64.9988 11.3786 64.9999 11.4715 64.9999C14.4851 64.9998 17.3202 63.8471 19.4814 61.7363C21.7096 59.5599 22.9368 56.6462 22.9368 53.5317C22.9366 50.1006 21.418 46.8775 18.7702 44.6891Z" fill="black"/>
<path d="M12.5201 18.9287H10.417C9.31215 18.9287 8.41332 19.8275 8.41332 20.9324V46.8758C8.41332 46.9153 8.39427 46.9529 8.36774 46.9654C5.68281 48.2352 4.054 50.9742 4.21841 53.9433C4.4228 57.6365 7.47971 60.6431 11.1777 60.7879C11.2762 60.7919 11.3744 60.7937 11.4723 60.7937C13.3593 60.7937 15.1355 60.0801 16.5012 58.7669C17.9386 57.3847 18.7303 55.5255 18.7303 53.5319C18.7303 50.7474 17.1047 48.1735 14.589 46.9747C14.549 46.9556 14.524 46.9201 14.524 46.8821V20.9324C14.524 19.8275 13.625 18.9287 12.5201 18.9287ZM16.826 53.5319C16.826 55.0028 16.2419 56.3744 15.1814 57.3942C14.1215 58.4134 12.7267 58.9431 11.2524 58.8852C8.52504 58.7783 6.27048 56.5613 6.11966 53.838C5.99829 51.6459 7.20028 49.6239 9.18151 48.687C9.87163 48.3609 10.3175 47.65 10.3175 46.8758V20.9324C10.3175 20.8776 10.3622 20.833 10.4169 20.833H12.52C12.575 20.833 12.6195 20.8776 12.6195 20.9324V46.8819C12.6195 47.6496 13.071 48.3606 13.7696 48.6936C15.6264 49.5784 16.826 51.4776 16.826 53.5319Z" fill="black"/>
<path d="M34.6036 16.6267C36.2884 16.6267 37.659 15.2562 37.659 13.5714C37.659 11.8867 36.2883 10.5161 34.6036 10.5161C32.9189 10.5161 31.5483 11.8867 31.5483 13.5714C31.5483 15.2562 32.9189 16.6267 34.6036 16.6267ZM34.6036 12.4204C35.2384 12.4204 35.7547 12.9367 35.7547 13.5714C35.7547 14.2061 35.2384 14.7225 34.6036 14.7225C33.969 14.7225 33.4526 14.2061 33.4526 13.5714C33.4526 12.9367 33.969 12.4204 34.6036 12.4204Z" fill="black"/>
<path d="M48.348 35.5552C51.0512 35.5552 53.4656 34.6776 55.3298 33.0172C55.6958 32.6913 56.044 32.332 56.3648 31.9494C56.7028 31.5466 56.6501 30.9459 56.2473 30.608C55.8443 30.27 55.2438 30.3227 54.9059 30.7255C54.6441 31.0377 54.3605 31.3302 54.0632 31.595C52.5316 32.9592 50.6087 33.6508 48.348 33.6508C42.4946 33.6508 37.7326 28.8888 37.7326 23.0354C37.7326 17.1821 42.4947 12.4199 48.348 12.4199C50.4754 12.4199 52.5274 13.0467 54.2824 14.2323C54.7181 14.5267 55.31 14.4121 55.6044 13.9764C55.8987 13.5405 55.7842 12.9487 55.3483 12.6543C53.2772 11.2551 50.8566 10.5156 48.3479 10.5156C41.4444 10.5156 35.8281 16.1319 35.8281 23.0354C35.8281 29.9388 41.4445 35.5552 48.348 35.5552Z" fill="black"/>
<path d="M27.3418 9.36482L27.3419 36.7063C27.3419 38.391 28.7125 39.7617 30.3972 39.7617H57.7386C59.4232 39.7617 60.7939 38.3911 60.7939 36.7063L60.7938 9.36482C60.7938 7.68016 59.4232 6.30957 57.7386 6.30957H30.3972C28.7125 6.30944 27.3418 7.68016 27.3418 9.36482ZM58.8896 9.36482L58.8898 36.7063C58.8898 37.341 58.3735 37.8574 57.7387 37.8574H30.3972C29.7625 37.8574 29.2462 37.3411 29.2462 36.7063L29.2461 9.36482C29.2461 8.73019 29.7624 8.21387 30.3972 8.21387H57.7386C58.3733 8.21374 58.8896 8.73019 58.8896 9.36482Z" fill="black"/>
<path d="M59.8416 2.10352H36.5077C35.9818 2.10352 35.5556 2.52982 35.5556 3.05566C35.5556 3.5815 35.9818 4.00781 36.5077 4.00781H59.8416C61.6361 4.00781 63.0959 5.46765 63.0959 7.262V38.8099C63.0959 40.6042 61.6361 42.064 59.8417 42.064H28.2939C26.4994 42.064 25.0396 40.6042 25.0396 38.8099V7.262C25.0396 5.46765 26.4994 4.00781 28.2937 4.00781H32.699C33.225 4.00781 33.6512 3.5815 33.6512 3.05566C33.6512 2.52982 33.225 2.10352 32.699 2.10352H28.2937C25.4494 2.10352 23.1353 4.41762 23.1353 7.262V38.8099C23.1353 41.6542 25.4495 43.9683 28.2939 43.9683H59.8417C62.6861 43.9683 65.0002 41.6542 65.0002 38.8099V7.262C65.0002 4.41762 62.686 2.10352 59.8416 2.10352Z" fill="black"/>
</g>
<defs>
<clipPath id="clip0">
<rect width="65" height="65" fill="white"/>
</clipPath>
</defs>
</svg>
