<svg width="81" height="81" viewBox="0 0 81 81" fill="none" xmlns="http://www.w3.org/2000/svg">
<g clip-path="url(#clip0)">
<path d="M79.6875 17.1722C79.6875 21.5171 77.9281 25.4551 75.0798 28.3169L69.1863 22.4228L58.6851 11.9216L52.791 6.02814C55.6528 3.17979 59.5908 1.42041 63.9357 1.42041C72.6384 1.42041 79.6875 8.46948 79.6875 17.1722Z" fill="#69D6F4"/>
<path d="M77.0623 30.2987L69.7376 42.5068C68.3326 39.2905 66.4822 36.2717 64.2505 33.5278L69.1864 22.4229L75.0798 28.3169L77.0623 30.2987Z" fill="#CCD1D9"/>
<path d="M73.098 58.3112L73.1243 65.7403C73.1243 66.4627 72.8352 67.119 72.3494 67.5914L53.4346 48.6759L61.3105 30.2988L61.5726 30.5616C62.518 31.5064 63.4102 32.5043 64.2505 33.5279C66.4822 36.2718 68.3326 39.2906 69.7375 42.5068C71.9161 47.4421 73.0845 52.8112 73.098 58.3112Z" fill="#AAB2BD"/>
<path d="M53.4348 48.6758L72.3496 67.5912C71.8772 68.077 71.2209 68.3655 70.4992 68.3655H63.1873C57.74 68.3655 52.3977 67.2368 47.5016 65.0973C43.6425 63.4302 40.059 61.1459 36.8953 58.2976C36.3569 57.8252 35.8448 57.3394 35.3333 56.8272L34.6244 56.1184L24.9891 46.4837L24.2809 45.7749C23.7688 45.2634 23.283 44.7513 22.8106 44.2129C19.9622 41.0492 17.6779 37.4657 16.0108 33.6066C13.8714 28.7104 12.7427 23.3682 12.7427 17.9208V10.609C12.7427 9.87381 13.0311 9.21749 13.5035 8.74512L32.4324 27.6734L53.4348 48.6758Z" fill="#E6E9ED"/>
<path d="M69.1862 22.4228L64.2503 33.5278C63.41 32.5042 62.5179 31.5062 61.5725 30.5615L61.3103 30.2987L50.5335 19.5219C49.5881 18.5772 48.6037 17.6843 47.5801 16.8575L58.685 11.9216L69.1862 22.4228Z" fill="#E6E9ED"/>
<path d="M65.2486 47.3631C65.2486 48.8129 64.0731 49.9884 62.6233 49.9884C61.1729 49.9884 59.998 48.8129 59.998 47.3631C59.998 45.9133 61.1729 44.7378 62.6233 44.7378C64.0731 44.7378 65.2486 45.9133 65.2486 47.3631Z" fill="#FCD770"/>
<path d="M61.3104 30.2988L53.4345 48.6758L32.4321 27.6735L50.8092 19.7976L61.3104 30.2988Z" fill="#E6E9ED"/>
<path d="M58.6852 11.9218L47.5802 16.8577C44.8364 14.6259 41.8175 12.7755 38.6147 11.3578L50.8093 4.0459L52.7911 6.02833L58.6852 11.9218Z" fill="#CCD1D9"/>
<path d="M52.1222 31.6114C52.1222 33.0612 50.9467 34.2367 49.4969 34.2367C48.0464 34.2367 46.8716 33.0612 46.8716 31.6114C46.8716 30.1616 48.0464 28.9861 49.4969 28.9861C50.9467 28.9861 52.1222 30.1616 52.1222 31.6114Z" fill="#FCD770"/>
<path d="M50.8094 19.7977L32.4323 27.6736L13.5034 8.74532C13.9764 8.27295 14.6328 7.98389 15.3679 7.98389H22.6791C28.2316 7.98389 33.6527 9.15232 38.6149 11.3578C41.8176 12.7756 44.8365 14.626 47.5803 16.8577C48.6039 17.6845 49.5884 18.5774 50.5338 19.5221L50.8094 19.7977Z" fill="#AAB2BD"/>
<path d="M47.5013 65.0974L37.6827 70.9908L32.4321 65.7402L36.895 58.2976C40.0587 61.146 43.6422 63.4303 47.5013 65.0974Z" fill="#FCD770"/>
<path d="M36.3702 18.4849C36.3702 19.9347 35.1947 21.1102 33.7449 21.1102C32.2945 21.1102 31.1196 19.9347 31.1196 18.4849C31.1196 17.0351 32.2945 15.8596 33.7449 15.8596C35.1947 15.8596 36.3702 17.0351 36.3702 18.4849Z" fill="#FCD770"/>
<path d="M34.624 56.1185L25.8688 60.4897L20.6182 55.2391L24.9887 46.4839L34.624 56.1185Z" fill="#FCD770"/>
<path d="M22.8104 44.213L15.3678 48.6759L10.1172 43.4253L16.0106 33.6067C17.6777 37.4658 19.962 41.0493 22.8104 44.213Z" fill="#FCD770"/>
<path d="M34.9897 50.9172L36.8466 49.061L39.4712 51.6857L37.615 53.5419L34.9897 50.9172Z" fill="black"/>
<path d="M38.9873 54.8847C45.0519 60.5583 52.9541 63.9303 61.2395 64.3752L61.3799 61.7524C53.5988 61.3352 46.4761 58.2965 40.7807 52.967L38.9873 54.8847Z" fill="black"/>
<path d="M76.8847 28.2657C79.5401 25.1745 81.0002 21.2891 81.0002 17.1723C81.0002 7.76331 73.3447 0.10791 63.9357 0.10791C59.819 0.10791 55.9336 1.56797 52.8423 4.22339L51.0124 2.39351L38.5461 9.87393C33.5936 7.77677 28.2238 6.67115 22.6841 6.67115H15.362C13.1937 6.67115 11.4298 8.43566 11.4298 10.6091V17.9261C11.4298 23.3722 12.4931 28.6542 14.5198 33.5362L8.46289 43.6291L15.1627 50.3289L22.57 45.8839C22.8283 46.1557 23.0808 46.4326 23.3456 46.6992L23.3943 46.7479L19.0192 55.4981L25.6087 62.0876L34.3601 57.7125L34.4076 57.7593C34.6742 58.0259 34.9498 58.2778 35.2228 58.5355L30.7779 65.9441L37.4777 72.6439L47.5706 66.5883C52.4552 68.6149 57.7372 69.6782 63.182 69.6782H70.499C71.5501 69.6782 72.5397 69.2687 73.2826 68.5233C74.0261 67.7779 74.4343 66.7895 74.4311 65.7377L74.4145 58.3086C74.401 52.8151 73.3025 47.4908 71.2284 42.5748L78.7158 30.0956L76.8847 28.2657ZM63.9357 2.73321C71.8969 2.73321 78.3749 9.2112 78.3749 17.1723C78.3749 20.5879 77.1917 23.8195 75.0285 26.4096L54.6985 6.07956C57.2885 3.91638 60.5202 2.73321 63.9357 2.73321ZM62.4955 29.6284L51.4572 18.5901C50.9849 18.1177 50.5029 17.6594 50.0119 17.2134L58.3948 13.4882L67.6211 22.7146L63.8947 31.0987C63.4422 30.5981 62.9743 30.1072 62.4955 29.6284ZM34.7306 28.1158L50.5086 21.3532L59.7536 30.5981L52.9917 46.3762L34.7306 28.1158ZM50.6054 5.69884L56.4047 11.4981L47.7744 15.3348C45.7682 13.7568 43.6378 12.3813 41.4041 11.2212L50.6054 5.69884ZM48.4724 19.3714L32.7315 26.1167L15.9113 9.29644H22.6841C32.3309 9.29644 41.4246 12.8658 48.4724 19.3714ZM15.5709 47.0235L11.7695 43.2221L15.8587 36.4083C17.2117 39.0573 18.8577 41.5666 20.7914 43.8913L15.5709 47.0235ZM26.1272 58.8925L22.2156 54.9808L25.3543 48.7047L32.4059 55.7551L26.1272 58.8925ZM37.8859 69.3385L34.0845 65.5371L37.2181 60.3154C39.5428 62.2491 42.0521 63.895 44.7011 65.2481L37.8859 69.3385ZM36.265 55.9038L25.203 44.8431C18.0148 37.6523 14.0551 28.094 14.0551 17.9261V11.1526L69.9555 67.0529H63.182C53.0154 67.0529 43.4557 63.0932 36.265 55.9038ZM71.8046 65.1904L54.9914 48.3753L61.7367 32.6357C68.2057 39.6553 71.7668 48.7105 71.7892 58.3124L71.8046 65.1904ZM69.8805 39.7174C68.7216 37.4793 67.3468 35.3462 65.7707 33.3388L69.6087 24.7034L75.4079 30.5026L69.8805 39.7174Z" fill="black"/>
<path d="M0 79.2506L2.62465 76.626L4.48146 78.4821L1.85617 81.1068L0 79.2506Z" fill="black"/>
<path d="M3.93799 75.3128L19.6904 59.561L21.5466 61.4172L5.79415 77.169L3.93799 75.3128Z" fill="black"/>
<path d="M10.501 75.3126L13.1256 72.688L14.9818 74.5442L12.3571 77.1694L10.501 75.3126Z" fill="black"/>
<path d="M14.4385 71.3755L21.0017 64.8123L22.8579 66.6691L16.2946 73.2317L14.4385 71.3755Z" fill="black"/>
<path d="M3.93799 68.7494L6.56264 66.1248L8.41945 67.9809L5.79415 70.6062L3.93799 68.7494Z" fill="black"/>
<path d="M7.87549 64.8123L14.4387 58.249L16.2949 60.1058L9.73165 66.6684L7.87549 64.8123Z" fill="black"/>
<path d="M0 56.9357L2.6253 54.311L4.48146 56.1672L1.85617 58.7925L0 56.9357Z" fill="black"/>
<path d="M3.93848 52.9977L9.18907 47.7471L11.0452 49.6032L5.79464 54.8538L3.93848 52.9977Z" fill="black"/>
<path d="M6.56299 56.9356L11.8136 51.6851L13.6704 53.5412L8.4198 58.7918L6.56299 56.9356Z" fill="black"/>
<path d="M0.000488281 50.3724L5.25108 45.1218L7.10724 46.978L1.85665 52.2286L0.000488281 50.3724Z" fill="black"/>
<path d="M22.3149 79.2506L24.9396 76.626L26.7958 78.4821L24.1711 81.1074L22.3149 79.2506Z" fill="black"/>
<path d="M26.2529 75.3126L31.5035 70.062L33.3597 71.9182L28.1091 77.1688L26.2529 75.3126Z" fill="black"/>
<path d="M28.8784 79.2506L34.129 74L35.9852 75.8562L30.7346 81.1068L28.8784 79.2506Z" fill="black"/>
<path d="M22.3149 72.6874L27.5655 67.4368L29.4223 69.2929L24.1711 74.5435L22.3149 72.6874Z" fill="black"/>
<path d="M33.7451 22.423C35.9159 22.423 37.683 20.6566 37.683 18.4851C37.683 16.3142 35.9159 14.5471 33.7451 14.5471C31.5736 14.5471 29.8071 16.3142 29.8071 18.4851C29.8071 20.6566 31.5736 22.423 33.7451 22.423ZM33.7451 17.1724C34.4681 17.1724 35.0577 17.7621 35.0577 18.4851C35.0577 19.2087 34.4681 19.7977 33.7451 19.7977C33.0214 19.7977 32.4324 19.2087 32.4324 18.4851C32.4324 17.7621 33.0214 17.1724 33.7451 17.1724Z" fill="black"/>
<path d="M58.6851 47.3632C58.6851 49.5347 60.4515 51.3012 62.623 51.3012C64.7939 51.3012 66.561 49.5347 66.561 47.3632C66.561 45.1924 64.7939 43.4253 62.623 43.4253C60.4515 43.4253 58.6851 45.1924 58.6851 47.3632ZM63.9357 47.3632C63.9357 48.0881 63.346 48.6759 62.623 48.6759C61.8994 48.6759 61.3104 48.0881 61.3104 47.3632C61.3104 46.639 61.8994 46.0506 62.623 46.0506C63.346 46.0506 63.9357 46.639 63.9357 47.3632Z" fill="black"/>
<path d="M49.4965 27.6736C47.325 27.6736 45.5586 29.4407 45.5586 31.6115C45.5586 33.783 47.325 35.5495 49.4965 35.5495C51.6674 35.5495 53.4345 33.783 53.4345 31.6115C53.4345 29.4407 51.6674 27.6736 49.4965 27.6736ZM49.4965 32.9242C48.7729 32.9242 48.1839 32.3352 48.1839 31.6115C48.1839 30.8885 48.7729 30.2989 49.4965 30.2989C50.2195 30.2989 50.8092 30.8885 50.8092 31.6115C50.8092 32.3352 50.2195 32.9242 49.4965 32.9242Z" fill="black"/>
<path d="M59.5054 6.21853L60.4911 8.65219C61.225 8.35415 61.9967 8.15482 62.7857 8.05611L62.4601 5.45068C61.4455 5.57631 60.4501 5.83525 59.5054 6.21853Z" fill="black"/>
<path d="M63.936 5.3584V7.98369C66.7382 7.98369 69.3533 9.23994 71.1094 11.4294L73.1585 9.7873C70.9005 6.97293 67.5388 5.3584 63.936 5.3584Z" fill="black"/>
</g>
<defs>
<clipPath id="clip0">
<rect width="81" height="81" fill="white"/>
</clipPath>
</defs>
</svg>
